<?xml version="1.0" encoding="utf-8"?>
<!-- Generator: Adobe Illustrator 13.0.0, SVG Export Plug-In . SVG Version: 6.00 Build 14948)  -->
<!DOCTYPE svg PUBLIC "-//W3C//DTD SVG 1.1 Tiny//EN" "http://www.w3.org/Graphics/SVG/1.1/DTD/svg11-tiny.dtd">
<svg version="1.1" baseProfile="tiny" id="Layer_1" xmlns="http://www.w3.org/2000/svg" xmlns:xlink="http://www.w3.org/1999/xlink"
	 x="0px" y="0px" width="334.719px" height="404.042px" viewBox="0 0 334.719 404.042" xml:space="preserve">
<g>
	<path fill="#2196f3" d="M158.271,47.618V13.35C79.182,17.731,15.827,81.085,11.446,160.176h34.165
		c0.126-1.757,0.293-3.501energon.svg,0.494-5.236h-4.707C47.855,96.309,94.405,49.758,153.037,43.302v4.804
		C154.771,47.907,156.515,47.742,158.271,47.618z M334.719,0L273.44,32.356l28.924,28.924L334.719,0z M61.28,32.356L0,0
		l32.356,61.28L61.28,32.356z M287.936,182.919h4.718c-6.456,58.632-53.007,105.182-111.638,111.639v-4.62
		c-1.734,0.198-3.479,0.364-5.235,0.489v34.083c79.089-4.382,142.443-67.736,146.825-146.825h-34.187
		C288.296,179.44,288.132,181.185,287.936,182.919z M158.271,290.429c-1.756-0.124-3.5-0.29-5.235-0.488v4.617
		c-58.632-6.456-105.182-53.007-111.639-111.639h4.685c-0.197-1.734-0.36-3.479-0.484-5.234H11.446
		c4.381,79.089,67.736,142.443,146.826,146.825V290.429z M175.781,13.35V47.62c1.756,0.125,3.501,0.29,5.235,0.489v-4.808
		c58.631,6.457,105.181,53.007,111.638,111.638h-4.739c0.199,1.735,0.367,3.479,0.493,5.236h34.198
		C318.224,81.085,254.87,17.731,175.781,13.35z M167.36,404.042l20.453-66.21h-40.905L167.36,404.042z"/>
</g>
</svg>
